<?xml version="1.0" encoding="UTF-8"?>
<svg width="172px" height="26px" viewBox="0 0 172 26" version="1.1" xmlns="http://www.w3.org/2000/svg" xmlns:xlink="http://www.w3.org/1999/xlink">
    <!-- Generator: Sketch 41.2 (35397) - http://www.bohemiancoding.com/sketch -->
    <title>Group 2</title>
    <desc>Created with Sketch.</desc>
    <defs></defs>
    <g id="Welcome" stroke="none" stroke-width="1" fill="none" fill-rule="evenodd">
        <g id="ember-socket-guru-intro" transform="translate(-634.000000, -76.000000)">
            <g id="Group-3" transform="translate(608.000000, 64.000000)">
                <g id="Group-2" transform="translate(26.000000, 12.000000)">
                    <path d="M58.3854047,19.6166742 C61.2575775,19.6166742 62.6010132,18.0801584 62.6010132,16.1711538 C62.6010132,13.9129412 61.0954387,13.4706109 58.6865196,12.5161086 C57.5978735,12.0970588 56.902993,11.7012896 56.902993,11.1425566 C56.902993,10.4441403 57.6210362,10.1647738 58.1306152,10.1647738 C59.0107972,10.1647738 60.053118,10.5139819 60.9564626,11.375362 L62.2535729,9.32667421 C61.002788,8.30233032 59.7056777,7.90656109 58.2695913,7.90656109 C55.9533229,7.90656109 54.2856097,9.25683258 54.2856097,11.119276 C54.2856097,13.3542081 55.8838349,14.1923077 57.7368496,14.8441629 C59.2192613,15.3563348 59.9604672,15.6357014 59.9604672,16.2177149 C59.9604672,16.8928507 59.3814001,17.335181 58.3854047,17.335181 C56.9956437,17.335181 56.022811,16.8928507 55.1194663,16.00819 L53.822356,17.9637557 C55.0036529,19.0113801 56.5555527,19.6166742 58.3854047,19.6166742 Z M70.3373495,19.6166742 C66.7702962,19.6166742 64.4077025,17.1023756 64.4077025,13.7732579 C64.4077025,10.4208597 66.7702962,7.90656109 70.3373495,7.90656109 C73.8117521,7.90656109 76.2669965,10.2811765 76.2669965,13.7732579 C76.2669965,17.2187783 73.8117521,19.6166742 70.3373495,19.6166742 Z M70.3373495,17.2420588 C72.1672015,17.2420588 73.6264506,15.8219457 73.6264506,13.7732579 C73.6264506,11.678009 72.1903642,10.2578959 70.3373495,10.2578959 C68.3685214,10.2578959 67.0482484,11.7944118 67.0482484,13.7732579 C67.0482484,15.705543 68.3916841,17.2420588 70.3373495,17.2420588 Z M84.072821,19.6166742 C86.2501132,19.6166742 87.9873145,18.7320136 88.9601472,17.6145475 L87.1766206,16.0314706 C86.5743908,16.6833258 85.5552327,17.2420588 84.3044478,17.2420588 C82.312457,17.2420588 80.9458587,15.8452262 80.9458587,13.7499774 C80.9458587,11.678009 82.2892943,10.2578959 84.3044478,10.2578959 C85.53207,10.2578959 86.5049027,10.7933484 87.1534579,11.5616063 L88.9138219,10.0250905 C87.7788504,8.62825792 85.9258357,7.90656109 84.1654717,7.90656109 C80.7373945,7.90656109 78.3053127,10.2811765 78.3053127,13.7732579 C78.3053127,17.2420588 80.7373945,19.6166742 84.072821,19.6166742 Z M95.8163016,14.6579186 L98.7579624,19.4304299 L101.676461,19.4304299 L97.5303402,12.6557919 L101.606973,8.06952489 L98.5263356,8.06952489 L93.8937988,13.261086 L93.8937988,2.29595023 L91.2995783,2.29595023 L91.2995783,19.4304299 L93.8937988,19.4304299 L93.8937988,16.7531674 L95.7699762,14.6579186 L95.8163016,14.6579186 Z M113.396779,13.6102941 C113.396779,14.0293439 113.350453,14.4483937 113.32729,14.6579186 L105.081375,14.6579186 C105.428815,16.264276 106.633275,17.2420588 108.300988,17.2420588 C109.621261,17.2420588 110.547768,16.6367647 111.126836,15.9150679 L112.933525,17.4748643 C111.983855,18.708733 110.38563,19.6166742 108.162012,19.6166742 C104.872911,19.6166742 102.394504,17.2886199 102.394504,13.7499774 C102.394504,10.2578959 104.757098,7.90656109 107.907222,7.90656109 C111.242649,7.90656109 113.396779,10.304457 113.396779,13.6102941 Z M108.046199,10.2578959 C106.610112,10.2578959 105.498303,11.0727149 105.1277,12.5626697 L110.779395,12.5626697 C110.455118,11.1891176 109.52861,10.2578959 108.046199,10.2578959 Z M119.442239,19.6166742 C120.924651,19.6166742 121.642694,19.3140271 122.314412,18.9415385 L121.642694,16.6833258 C121.040464,17.0092534 120.415072,17.1722172 119.974981,17.1722172 C119.233775,17.1722172 118.886335,16.7531674 118.886335,15.5891403 L118.886335,10.2811765 L122.198598,10.2811765 L122.198598,8.06952489 L118.886335,8.06952489 L118.886335,4.01871041 L116.292114,4.29807692 L116.292114,8.06952489 L114.902353,8.06952489 L114.902353,10.2811765 L116.292114,10.2811765 L116.292114,15.8452262 C116.292114,18.3828054 117.496574,19.6166742 119.442239,19.6166742 Z" id="socketguru" fill="#FFFFFF"></path>
                    <g id="Group-5" opacity="0.5" transform="translate(125.089457, 7.750000)" fill="#FFFFFF">
                        <path d="M2.41799626,5.46941595 C2.41799626,7.25207117 3.6096,8.75791656 5.59994019,8.75791656 C7.5003215,8.75791656 8.78153271,7.32992393 8.78153271,5.46941595 C8.78153271,3.6096 7.5003215,2.18126135 5.59994019,2.18126135 C3.6096,2.18126135 2.41799626,3.67603436 2.41799626,5.46941595 M8.57982804,1.55013497 L8.57982804,0.277155828 L10.9408972,0.277155828 L10.9408972,10.1419656 C10.9408972,13.4747558 8.75974579,15.5228025 5.16139065,15.5228025 C3.5537271,15.5228025 1.78793271,15.0909791 0.652201869,14.2941129 L1.50645981,12.3342994 C2.59791402,12.9872245 3.84539065,13.4079755 5.16139065,13.4079755 C7.36503178,13.4079755 8.57982804,12.2125031 8.57982804,10.2412712 L8.57982804,9.38904294 C7.76984673,10.4073571 6.55575327,10.9395239 4.99306916,10.9395239 C2.52974206,10.9395239 0,8.90185767 0,5.46941595 C0,2.03697423 2.52974206,-1.77635684e-15 4.99306916,-1.77635684e-15 C6.55575327,-1.77635684e-15 7.76984673,0.542893252 8.57982804,1.55013497" id="Fill-11"></path>
                        <path d="M34.4339746,0.298816196 L33.8717316,2.59080147 C33.3769578,2.33613644 32.6576381,2.20326773 32.0841503,2.20326773 C30.5885839,2.20326773 29.5206736,3.24407264 29.5206736,5.04921865 L29.5206736,10.8840236 L27.1704979,10.8840236 L27.1704979,0.277363436 L29.4978325,0.277363436 L29.4978325,1.47283583 C30.2062587,0.464902086 31.308255,0.000207607362 32.6235521,0.000207607362 C33.3435746,0.000207607362 33.8945727,0.0887867485 34.4339746,0.298816196" id="Fill-13"></path>
                        <path d="M14.0293331,6.94200957 L14.0293331,0.276429202 L16.391105,0.276429202 L16.391105,6.17836049 C16.391105,7.96101571 17.3244284,8.95718503 18.8987088,8.95718503 C20.4164135,8.95718503 21.687434,7.97243411 21.687434,6.15621571 L21.687434,0.276429202 L24.0485032,0.276429202 L24.0485032,10.8225372 C24.0485032,11.0014255 23.9388658,11.1630133 23.7708957,11.2311777 C23.6029256,11.3000341 23.4096546,11.2619728 23.2810415,11.1356783 L21.7092209,9.58831141 C20.8440695,10.8394918 19.5055798,11.1609372 18.403935,11.1609372 C15.8397555,11.1609372 14.0293331,9.42222552 14.0293331,6.94200957" id="Fill-15"></path>
                        <path d="M36.1347245,6.94200957 L36.1347245,0.276429202 L38.496145,0.276429202 L38.496145,6.17801448 C38.496145,7.96101571 39.4294684,8.95718503 41.0041002,8.95718503 C42.5218049,8.95718503 43.792474,7.97243411 43.792474,6.15621571 L43.792474,0.276429202 L46.1538946,0.276429202 L46.1538946,10.8225372 C46.1538946,11.0014255 46.0442572,11.1630133 45.8762871,11.2315237 C45.708317,11.3000341 45.5146946,11.2619728 45.3864329,11.1356783 L43.8149637,9.58831141 C42.9494609,10.8394918 41.6109712,11.1609372 40.508975,11.1609372 C37.9447955,11.1609372 36.1347245,9.42222552 36.1347245,6.94200957" id="Fill-17"></path>
                    </g>
                    <g id="Stroomlijnen" fill="#00D664">
                        <path d="M34.0981232,8.48094282 L39.4556986,13.3310559 C39.8517491,13.6895931 40.4619919,13.6575488 40.8187139,13.2594831 C41.1754359,12.8614173 41.1435539,12.2480695 40.7475034,11.8895323 L35.3899279,7.03941918 C34.9938774,6.68088202 34.3836347,6.71292629 34.0269126,7.11099205 C33.6701906,7.50905781 33.7020726,8.12240566 34.0981232,8.48094282 Z" id="Line"></path>
                        <path d="M35.3899279,18.1811691 L40.7475034,13.3310559 C41.1435539,12.9725188 41.1754359,12.3591709 40.8187139,11.9611052 C40.4619919,11.5630394 39.8517491,11.5309951 39.4556986,11.8895323 L34.0981232,16.7396454 C33.7020726,17.0981826 33.6701906,17.7115304 34.0269126,18.1095962 C34.3836347,18.5076619 34.9938774,18.5397062 35.3899279,18.1811691 Z" id="Line"></path>
                        <path d="M1.44766773,1.94004525 C11.4809555,1.94004525 15.0928068,3.33995235 19.9044501,7.52375703 C19.9555536,7.56819637 19.9555536,7.56819637 20.0067384,7.61271148 C25.1148943,12.0550885 28.9821942,13.5803167 39.0870288,13.5803167 C39.6200453,13.5803167 40.0521406,13.1460228 40.0521406,12.6102941 C40.0521406,12.0745654 39.6200453,11.6402715 39.0870288,11.6402715 C29.4584313,11.6402715 26.0356268,10.2903483 21.2697285,6.14562017 C21.2185735,6.10113091 21.2185735,6.10113091 21.1673184,6.05655971 C16.0106576,1.57275654 11.9528435,0 1.44766773,0 C0.914651191,0 0.482555911,0.434293922 0.482555911,0.970022624 C0.482555911,1.50575133 0.914651191,1.94004525 1.44766773,1.94004525 Z" id="Line"></path>
                        <path d="M1.44766773,9.70022624 C11.6301076,9.70022624 15.3754772,10.1841119 20.2684702,11.6022918 L20.3707778,11.6319489 C25.398192,13.0893352 29.132924,13.5803167 39.0870288,13.5803167 C39.6200453,13.5803167 40.0521406,13.1460228 40.0521406,12.6102941 C40.0521406,12.0745654 39.6200453,11.6402715 39.0870288,11.6402715 C29.3077015,11.6402715 25.7523291,11.1728692 20.9056892,9.76788716 L20.8032983,9.73820593 C15.7279872,8.26718319 11.8036914,7.760181 1.44766773,7.760181 C0.914651191,7.760181 0.482555911,8.19447492 0.482555911,8.73020362 C0.482555911,9.26593232 0.914651191,9.70022624 1.44766773,9.70022624 Z" id="Line"></path>
                        <path d="M1.44766773,25.2205882 C11.9528435,25.2205882 16.0106576,23.6478317 21.1673184,19.1640285 C21.2185735,19.1194573 21.2185735,19.1194573 21.2697285,19.0749681 C26.0356268,14.93024 29.4584313,13.5803167 39.0870288,13.5803167 C39.6200453,13.5803167 40.0521406,13.1460228 40.0521406,12.6102941 C40.0521406,12.0745654 39.6200453,11.6402715 39.0870288,11.6402715 C28.9821942,11.6402715 25.1148943,13.1654997 20.0067384,17.6078768 C19.9555536,17.6523919 19.9555536,17.6523919 19.9044501,17.6968312 C15.0928068,21.8806359 11.4809555,23.280543 1.44766773,23.280543 C0.914651191,23.280543 0.482555911,23.7148369 0.482555911,24.2505656 C0.482555911,24.7862943 0.914651191,25.2205882 1.44766773,25.2205882 Z" id="Line"></path>
                        <path d="M1.44766773,17.4604072 C11.8036914,17.4604072 15.7279872,16.953405 20.8032983,15.4823823 L20.9056892,15.4527011 C25.7523291,14.047719 29.3077015,13.5803167 39.0870288,13.5803167 C39.6200453,13.5803167 40.0521406,13.1460228 40.0521406,12.6102941 C40.0521406,12.0745654 39.6200453,11.6402715 39.0870288,11.6402715 C29.132924,11.6402715 25.398192,12.131253 20.3707778,13.5886394 L20.2684702,13.6182964 C15.3754772,15.0364763 11.6301076,15.520362 1.44766773,15.520362 C0.914651191,15.520362 0.482555911,15.9546559 0.482555911,16.4903846 C0.482555911,17.0261133 0.914651191,17.4604072 1.44766773,17.4604072 Z" id="Line"></path>
                    </g>
                </g>
            </g>
        </g>
    </g>
</svg>