<?xml version="1.0" encoding="UTF-8"?>
<svg width="70px" height="14px" viewBox="0 0 70 14" version="1.1" xmlns="http://www.w3.org/2000/svg" xmlns:xlink="http://www.w3.org/1999/xlink">
    <!-- Generator: Sketch 41.2 (35397) - http://www.bohemiancoding.com/sketch -->
    <title>NG logo</title>
    <desc>Created with Sketch.</desc>
    <defs></defs>
    <g id="Welcome" stroke="none" stroke-width="1" fill="none" fill-rule="evenodd" opacity="0.350000024">
        <g id="ember-socket-guru-intro" transform="translate(-736.000000, -128.000000)" fill="#FFFFFF">
            <g id="Group-3" transform="translate(608.000000, 64.000000)">
                <g id="Group-7" transform="translate(27.000000, 60.000000)">
                    <g id="NG-logo" transform="translate(101.000000, 4.000000)">
                        <path d="M0.731707165,13.1648528 C0.3274081,13.1648528 8.72274143e-05,12.8423374 8.72274143e-05,12.444454 L8.72274143e-05,0.720527607 C8.72274143e-05,0.428932515 0.178249221,0.166539877 0.451707165,0.0548834356 C0.725165109,-0.0561288344 1.03961994,0.00506748466 1.24896573,0.21098773 L5.6085919,4.50331902 C5.89447975,4.78482209 5.89447975,5.24111043 5.60880997,5.52239877 C5.32314019,5.80390184 4.85996262,5.80390184 4.57407477,5.52239877 L1.46310903,2.45979141 L1.46310903,12.444454 C1.46310903,12.8423374 1.13578816,13.1648528 0.731707165,13.1648528" id="Fill-1"></path>
                        <path d="M12.6385981,13.1648528 C12.4482243,13.1648528 12.2609034,13.0918466 12.1211215,12.9539939 L7.76149533,8.6610184 C7.47560748,8.37994479 7.47560748,7.92387117 7.76149533,7.6423681 C8.04694704,7.36107975 8.51034268,7.36107975 8.79601246,7.6423681 L11.9069782,10.7051902 L11.9069782,0.720527607 C11.9069782,0.322429448 12.2342991,-8.58895706e-05 12.6383801,-8.58895706e-05 C13.0426791,-8.58895706e-05 13.37,0.322429448 13.37,0.720527607 L13.37,12.444454 C13.37,12.7358344 13.1916199,12.9986564 12.9183801,13.1098834 C12.8278816,13.146816 12.7328037,13.1648528 12.6385981,13.1648528" id="Fill-3"></path>
                        <path d="M26.272134,5.74261963 L26.272134,9.87906135 L24.8067134,9.87906135 L24.8067134,6.21673006 C24.8067134,5.11068712 24.2275234,4.49206748 23.2505763,4.49206748 C22.3083022,4.49206748 21.5199844,5.1033865 21.5199844,6.23025767 L21.5199844,9.87906135 L20.0547819,9.87906135 L20.0547819,3.3344908 C20.0547819,3.22347853 20.1228193,3.12320245 20.2270561,3.08090184 C20.3312928,3.03817178 20.4514486,3.06179141 20.5310436,3.14038037 L21.5062461,4.10041104 C22.0433489,3.32396933 22.873972,3.12492025 23.5576168,3.12492025 C25.1484268,3.12492025 26.272134,4.20347853 26.272134,5.74261963" id="Fill-5"></path>
                        <path d="M29.2563146,6.02444479 L32.7242586,6.02444479 C32.5639782,5.00021166 31.9570935,4.40263497 31.0287757,4.40263497 C29.9890249,4.40263497 29.410053,5.0624816 29.2563146,6.02444479 M34.21781,6.5810092 C34.21781,6.76631595 34.2036355,6.95183742 34.1898972,7.1167454 L29.2495545,7.1167454 C29.4447259,8.29880061 30.2890872,8.79330982 31.2381215,8.79330982 C31.908028,8.79330982 32.6198037,8.53220552 33.171081,8.09932209 L33.896595,9.12334049 C33.0801464,9.81024233 32.1594611,10.0505184 31.147405,10.0505184 C29.1446636,10.0505184 27.7283084,8.67628528 27.7283084,6.58766564 C27.7283084,4.52653067 29.088838,3.12481288 31.0566885,3.12481288 C32.9268442,3.12481288 34.2108318,4.52653067 34.21781,6.5810092" id="Fill-7"></path>
                        <path d="M40.2309626,4.60209202 L37.6699657,4.60209202 L37.6699657,7.46715337 C37.6699657,8.35374847 38.1444829,8.69709202 38.730433,8.69709202 C39.1840156,8.69709202 39.6799034,8.49804294 40.0772243,8.25046626 L40.6564143,9.39795092 C40.1193115,9.75525153 39.4426449,10.0504969 38.6052617,10.0504969 C37.0912118,10.0504969 36.2047632,9.24678528 36.2047632,7.49485276 L36.2047632,4.60209202 L34.8717103,4.60209202 L34.8717103,3.29678528 L36.2047632,3.29678528 L36.2047632,1.30393252 L37.6699657,1.30393252 L37.6699657,3.29678528 L40.2309626,3.29678528 L40.2309626,4.60209202 Z" id="Fill-9"></path>
                        <path d="M42.7485639,6.51888957 C42.7485639,7.62514724 43.4880343,8.55962577 44.7231745,8.55962577 C45.9024891,8.55962577 46.697567,7.67346012 46.697567,6.51888957 C46.697567,5.36474847 45.9024891,4.4783681 44.7231745,4.4783681 C43.4880343,4.4783681 42.7485639,5.40597546 42.7485639,6.51888957 M46.5723956,4.08671166 L46.5723956,3.29674233 L48.0375981,3.29674233 L48.0375981,9.41852147 C48.0375981,11.4867423 46.6840467,12.7576933 44.4510249,12.7576933 C43.4533614,12.7576933 42.357567,12.4897178 41.6527695,11.9952086 L42.1828941,10.7790123 C42.860215,11.1841963 43.6343583,11.4453006 44.4510249,11.4453006 C45.8185327,11.4453006 46.5723956,10.7034294 46.5723956,9.48014724 L46.5723956,8.95128221 C46.0697477,9.58321472 45.3163209,9.91346012 44.3465701,9.91346012 C42.8179097,9.91346012 41.2480343,8.64895092 41.2480343,6.51888957 C41.2480343,4.38882822 42.8179097,3.12474847 44.3465701,3.12474847 C45.3163209,3.12474847 46.0697477,3.46165031 46.5723956,4.08671166" id="Fill-11"></path>
                        <path d="M62.6166355,3.31018405 L62.2677259,4.73251534 C61.9606854,4.57447853 61.5142991,4.49202454 61.1584112,4.49202454 C60.2303115,4.49202454 59.5676012,5.13791411 59.5676012,6.25812883 L59.5676012,9.8790184 L58.1091589,9.8790184 L58.1091589,3.29687117 L59.5534268,3.29687117 L59.5534268,4.03874233 C59.993053,3.41325153 60.6769159,3.1248773 61.4931464,3.1248773 C61.9399688,3.1248773 62.2819003,3.17984663 62.6166355,3.31018405" id="Fill-13"></path>
                        <path d="M49.9541807,7.43273313 L49.9541807,3.29629141 L51.4198193,3.29629141 L51.4198193,6.95883742 C51.4198193,8.06509509 51.9990093,8.68328528 52.9759564,8.68328528 C53.9177944,8.68328528 54.7065483,8.07218098 54.7065483,6.94509509 L54.7065483,3.29629141 L56.1717508,3.29629141 L56.1717508,9.84086196 C56.1717508,9.95187423 56.1037134,10.0521503 55.9994766,10.0944509 C55.8952399,10.137181 55.7753022,10.1135613 55.6954891,10.0351871 L54.7200685,9.07494172 C54.1831838,9.85138344 53.3525607,10.050862 52.6689159,10.050862 C51.0776698,10.050862 49.9541807,8.97187423 49.9541807,7.43273313" id="Fill-15"></path>
                        <path d="M63.6720654,7.43273313 L63.6720654,3.29629141 L65.137486,3.29629141 L65.137486,6.9586227 C65.137486,8.06509509 65.716676,8.68328528 66.6938411,8.68328528 C67.6356791,8.68328528 68.424215,8.07218098 68.424215,6.94509509 L68.424215,3.29629141 L69.8896355,3.29629141 L69.8896355,9.84086196 C69.8896355,9.95187423 69.8215981,10.0521503 69.7173614,10.0946656 C69.6131246,10.137181 69.4929688,10.1135613 69.4133738,10.0351871 L68.4381713,9.07494172 C67.9010685,9.85138344 67.0704455,10.050862 66.3865826,10.050862 C64.7953364,10.050862 63.6720654,8.97187423 63.6720654,7.43273313" id="Fill-17"></path>
                    </g>
                </g>
            </g>
        </g>
    </g>
</svg>